<svg width="48" height="48" viewBox="0 0 48 48" fill="none" xmlns="http://www.w3.org/2000/svg">
<path d="M25 34L24 32L23 34H25Z" stroke="#FDE008" stroke-width="4" stroke-linecap="round" stroke-linejoin="round"/>
<path d="M30 44C30.5304 44 31.0391 43.7893 31.4142 43.4142C31.7893 43.0391 32 42.5304 32 42V40C32.7534 39.9995 33.4913 39.7863 34.1289 39.3849C34.7664 38.9834 35.2776 38.4101 35.6036 37.7309C35.9296 37.0517 36.0572 36.2943 35.9716 35.5458C35.8861 34.7973 35.5909 34.0881 35.12 33.5C37.4119 31.2846 38.9899 28.4351 39.6516 25.3169C40.3132 22.1986 40.0283 18.9539 38.8335 15.9986C37.6387 13.0434 35.5884 10.5124 32.9455 8.73019C30.3026 6.94799 27.1876 5.99585 24 5.99585C20.8124 5.99585 17.6974 6.94799 15.0545 8.73019C12.4116 10.5124 10.3613 13.0434 9.16649 15.9986C7.97167 18.9539 7.68682 22.1986 8.34846 25.3169C9.0101 28.4351 10.5881 31.2846 12.88 33.5C12.4091 34.0881 12.1139 34.7973 12.0284 35.5458C11.9428 36.2943 12.0704 37.0517 12.3964 37.7309C12.7224 38.4101 13.2336 38.9834 13.8712 39.3849C14.5087 39.7863 15.2466 39.9995 16 40V42C16 42.5304 16.2107 43.0391 16.5858 43.4142C16.9609 43.7893 17.4696 44 18 44H30Z" stroke="#FDE008" stroke-width="4" stroke-linecap="round" stroke-linejoin="round"/>
<path d="M30 26C31.1046 26 32 25.1046 32 24C32 22.8954 31.1046 22 30 22C28.8954 22 28 22.8954 28 24C28 25.1046 28.8954 26 30 26Z" stroke="#FDE008" stroke-width="4" stroke-linecap="round" stroke-linejoin="round"/>
<path d="M18 26C19.1046 26 20 25.1046 20 24C20 22.8954 19.1046 22 18 22C16.8954 22 16 22.8954 16 24C16 25.1046 16.8954 26 18 26Z" stroke="#FDE008" stroke-width="4" stroke-linecap="round" stroke-linejoin="round"/>
</svg>
